<mxfile host="app.diagrams.net" agent="Mozilla/5.0 (Macintosh; Intel Mac OS X 10_15_7) AppleWebKit/537.36 (KHTML, like Gecko) Chrome/127.0.0.0 Safari/537.36" version="24.7.7">
  <diagram id="C5RBs43oDa-KdzZeNtuy" name="Page-1">
    <mxGraphModel dx="3215" dy="1512" grid="1" gridSize="10" guides="1" tooltips="1" connect="1" arrows="1" fold="1" page="1" pageScale="1" pageWidth="827" pageHeight="1169" math="0" shadow="0">
      <root>
        <mxCell id="WIyWlLk6GJQsqaUBKTNV-0" />
        <mxCell id="WIyWlLk6GJQsqaUBKTNV-1" parent="WIyWlLk6GJQsqaUBKTNV-0" />
        <mxCell id="heyaywztZK_FHNSPYzDM-2" style="edgeStyle=orthogonalEdgeStyle;rounded=0;orthogonalLoop=1;jettySize=auto;html=1;exitX=0.5;exitY=1;exitDx=0;exitDy=0;entryX=0.5;entryY=0;entryDx=0;entryDy=0;" edge="1" parent="WIyWlLk6GJQsqaUBKTNV-1" source="heyaywztZK_FHNSPYzDM-0" target="heyaywztZK_FHNSPYzDM-1">
          <mxGeometry relative="1" as="geometry" />
        </mxCell>
        <mxCell id="heyaywztZK_FHNSPYzDM-0" value="Start" style="ellipse;whiteSpace=wrap;html=1;" vertex="1" parent="WIyWlLk6GJQsqaUBKTNV-1">
          <mxGeometry x="439" y="30" width="120" height="80" as="geometry" />
        </mxCell>
        <mxCell id="heyaywztZK_FHNSPYzDM-6" style="edgeStyle=orthogonalEdgeStyle;rounded=0;orthogonalLoop=1;jettySize=auto;html=1;exitX=0.5;exitY=1;exitDx=0;exitDy=0;entryX=0.5;entryY=0;entryDx=0;entryDy=0;" edge="1" parent="WIyWlLk6GJQsqaUBKTNV-1" source="heyaywztZK_FHNSPYzDM-1" target="heyaywztZK_FHNSPYzDM-5">
          <mxGeometry relative="1" as="geometry" />
        </mxCell>
        <mxCell id="heyaywztZK_FHNSPYzDM-1" value="Welcome Screen" style="rounded=1;whiteSpace=wrap;html=1;" vertex="1" parent="WIyWlLk6GJQsqaUBKTNV-1">
          <mxGeometry x="439" y="160" width="120" height="40" as="geometry" />
        </mxCell>
        <mxCell id="heyaywztZK_FHNSPYzDM-8" style="edgeStyle=orthogonalEdgeStyle;rounded=0;orthogonalLoop=1;jettySize=auto;html=1;exitX=1;exitY=0.5;exitDx=0;exitDy=0;entryX=0.5;entryY=0;entryDx=0;entryDy=0;" edge="1" parent="WIyWlLk6GJQsqaUBKTNV-1" source="heyaywztZK_FHNSPYzDM-3" target="heyaywztZK_FHNSPYzDM-7">
          <mxGeometry relative="1" as="geometry" />
        </mxCell>
        <mxCell id="heyaywztZK_FHNSPYzDM-9" value="&lt;font style=&quot;font-size: 13px;&quot;&gt;Exit&lt;/font&gt;" style="edgeLabel;html=1;align=center;verticalAlign=middle;resizable=0;points=[];" vertex="1" connectable="0" parent="heyaywztZK_FHNSPYzDM-8">
          <mxGeometry x="-0.7697" y="1" relative="1" as="geometry">
            <mxPoint as="offset" />
          </mxGeometry>
        </mxCell>
        <mxCell id="heyaywztZK_FHNSPYzDM-13" style="edgeStyle=orthogonalEdgeStyle;rounded=0;orthogonalLoop=1;jettySize=auto;html=1;exitX=0.5;exitY=1;exitDx=0;exitDy=0;entryX=0.5;entryY=0;entryDx=0;entryDy=0;" edge="1" parent="WIyWlLk6GJQsqaUBKTNV-1" source="heyaywztZK_FHNSPYzDM-3" target="heyaywztZK_FHNSPYzDM-12">
          <mxGeometry relative="1" as="geometry" />
        </mxCell>
        <mxCell id="heyaywztZK_FHNSPYzDM-3" value="Which Button?" style="rhombus;whiteSpace=wrap;html=1;" vertex="1" parent="WIyWlLk6GJQsqaUBKTNV-1">
          <mxGeometry x="459" y="310" width="80" height="80" as="geometry" />
        </mxCell>
        <mxCell id="heyaywztZK_FHNSPYzDM-11" style="edgeStyle=orthogonalEdgeStyle;rounded=0;orthogonalLoop=1;jettySize=auto;html=1;exitX=0.5;exitY=1;exitDx=0;exitDy=0;entryX=0.5;entryY=0;entryDx=0;entryDy=0;" edge="1" parent="WIyWlLk6GJQsqaUBKTNV-1" source="heyaywztZK_FHNSPYzDM-5" target="heyaywztZK_FHNSPYzDM-3">
          <mxGeometry relative="1" as="geometry" />
        </mxCell>
        <mxCell id="heyaywztZK_FHNSPYzDM-5" value="Press Button" style="rounded=1;whiteSpace=wrap;html=1;" vertex="1" parent="WIyWlLk6GJQsqaUBKTNV-1">
          <mxGeometry x="439" y="240" width="120" height="40" as="geometry" />
        </mxCell>
        <mxCell id="heyaywztZK_FHNSPYzDM-7" value="Close Software" style="rounded=1;whiteSpace=wrap;html=1;" vertex="1" parent="WIyWlLk6GJQsqaUBKTNV-1">
          <mxGeometry x="940" y="480" width="120" height="40" as="geometry" />
        </mxCell>
        <mxCell id="heyaywztZK_FHNSPYzDM-15" style="edgeStyle=orthogonalEdgeStyle;rounded=0;orthogonalLoop=1;jettySize=auto;html=1;exitX=0.5;exitY=1;exitDx=0;exitDy=0;entryX=0.5;entryY=0;entryDx=0;entryDy=0;" edge="1" parent="WIyWlLk6GJQsqaUBKTNV-1" source="heyaywztZK_FHNSPYzDM-12" target="heyaywztZK_FHNSPYzDM-14">
          <mxGeometry relative="1" as="geometry" />
        </mxCell>
        <mxCell id="heyaywztZK_FHNSPYzDM-12" value="Main Interface" style="rounded=1;whiteSpace=wrap;html=1;" vertex="1" parent="WIyWlLk6GJQsqaUBKTNV-1">
          <mxGeometry x="439" y="420" width="120" height="40" as="geometry" />
        </mxCell>
        <mxCell id="heyaywztZK_FHNSPYzDM-20" style="edgeStyle=orthogonalEdgeStyle;rounded=0;orthogonalLoop=1;jettySize=auto;html=1;exitX=1;exitY=0.5;exitDx=0;exitDy=0;entryX=0.5;entryY=0;entryDx=0;entryDy=0;" edge="1" parent="WIyWlLk6GJQsqaUBKTNV-1" source="heyaywztZK_FHNSPYzDM-14">
          <mxGeometry relative="1" as="geometry">
            <mxPoint x="852" y="610" as="targetPoint" />
          </mxGeometry>
        </mxCell>
        <mxCell id="heyaywztZK_FHNSPYzDM-32" value="Weight Calculator" style="edgeLabel;html=1;align=center;verticalAlign=middle;resizable=0;points=[];" vertex="1" connectable="0" parent="heyaywztZK_FHNSPYzDM-20">
          <mxGeometry x="0.7428" y="-1" relative="1" as="geometry">
            <mxPoint x="-1" as="offset" />
          </mxGeometry>
        </mxCell>
        <mxCell id="heyaywztZK_FHNSPYzDM-21" style="edgeStyle=orthogonalEdgeStyle;rounded=0;orthogonalLoop=1;jettySize=auto;html=1;exitX=0;exitY=0.5;exitDx=0;exitDy=0;entryX=0.5;entryY=0;entryDx=0;entryDy=0;" edge="1" parent="WIyWlLk6GJQsqaUBKTNV-1" source="heyaywztZK_FHNSPYzDM-14" target="heyaywztZK_FHNSPYzDM-30">
          <mxGeometry relative="1" as="geometry">
            <mxPoint x="110" y="600" as="targetPoint" />
          </mxGeometry>
        </mxCell>
        <mxCell id="heyaywztZK_FHNSPYzDM-28" value="Nutrition Filter&amp;nbsp;" style="edgeLabel;html=1;align=center;verticalAlign=middle;resizable=0;points=[];" vertex="1" connectable="0" parent="heyaywztZK_FHNSPYzDM-21">
          <mxGeometry x="0.7241" relative="1" as="geometry">
            <mxPoint y="27" as="offset" />
          </mxGeometry>
        </mxCell>
        <mxCell id="heyaywztZK_FHNSPYzDM-14" value="Select Feature" style="rhombus;whiteSpace=wrap;html=1;" vertex="1" parent="WIyWlLk6GJQsqaUBKTNV-1">
          <mxGeometry x="459" y="500" width="80" height="80" as="geometry" />
        </mxCell>
        <mxCell id="heyaywztZK_FHNSPYzDM-22" value="" style="endArrow=classic;html=1;rounded=0;entryX=0.5;entryY=0;entryDx=0;entryDy=0;" edge="1" parent="WIyWlLk6GJQsqaUBKTNV-1">
          <mxGeometry width="50" height="50" relative="1" as="geometry">
            <mxPoint x="635" y="540" as="sourcePoint" />
            <mxPoint x="635" y="610" as="targetPoint" />
          </mxGeometry>
        </mxCell>
        <mxCell id="heyaywztZK_FHNSPYzDM-31" value="Nutrition Breakdown" style="edgeLabel;html=1;align=center;verticalAlign=middle;resizable=0;points=[];" vertex="1" connectable="0" parent="heyaywztZK_FHNSPYzDM-22">
          <mxGeometry x="-0.2" relative="1" as="geometry">
            <mxPoint as="offset" />
          </mxGeometry>
        </mxCell>
        <mxCell id="heyaywztZK_FHNSPYzDM-23" value="" style="endArrow=classic;html=1;rounded=0;entryX=0.5;entryY=0;entryDx=0;entryDy=0;" edge="1" parent="WIyWlLk6GJQsqaUBKTNV-1" target="heyaywztZK_FHNSPYzDM-39">
          <mxGeometry width="50" height="50" relative="1" as="geometry">
            <mxPoint x="364" y="540" as="sourcePoint" />
            <mxPoint x="354.58" y="610" as="targetPoint" />
          </mxGeometry>
        </mxCell>
        <mxCell id="heyaywztZK_FHNSPYzDM-29" value="Food Search" style="edgeLabel;html=1;align=center;verticalAlign=middle;resizable=0;points=[];" vertex="1" connectable="0" parent="heyaywztZK_FHNSPYzDM-23">
          <mxGeometry x="-0.2571" y="-2" relative="1" as="geometry">
            <mxPoint x="9" as="offset" />
          </mxGeometry>
        </mxCell>
        <mxCell id="heyaywztZK_FHNSPYzDM-33" style="edgeStyle=orthogonalEdgeStyle;rounded=0;orthogonalLoop=1;jettySize=auto;html=1;exitX=0;exitY=0.5;exitDx=0;exitDy=0;entryX=0.5;entryY=0;entryDx=0;entryDy=0;" edge="1" parent="WIyWlLk6GJQsqaUBKTNV-1" source="heyaywztZK_FHNSPYzDM-30" target="heyaywztZK_FHNSPYzDM-34">
          <mxGeometry relative="1" as="geometry">
            <mxPoint x="-130" y="700" as="targetPoint" />
            <mxPoint x="-129.99999999999977" y="640" as="sourcePoint" />
            <Array as="points">
              <mxPoint x="-175" y="650" />
            </Array>
          </mxGeometry>
        </mxCell>
        <mxCell id="heyaywztZK_FHNSPYzDM-37" value="Nutrition Range" style="edgeLabel;html=1;align=center;verticalAlign=middle;resizable=0;points=[];" vertex="1" connectable="0" parent="heyaywztZK_FHNSPYzDM-33">
          <mxGeometry x="0.3961" y="3" relative="1" as="geometry">
            <mxPoint y="17" as="offset" />
          </mxGeometry>
        </mxCell>
        <mxCell id="heyaywztZK_FHNSPYzDM-77" style="edgeStyle=orthogonalEdgeStyle;rounded=0;orthogonalLoop=1;jettySize=auto;html=1;exitX=1;exitY=0.5;exitDx=0;exitDy=0;entryX=0.5;entryY=0;entryDx=0;entryDy=0;" edge="1" parent="WIyWlLk6GJQsqaUBKTNV-1" source="heyaywztZK_FHNSPYzDM-30" target="heyaywztZK_FHNSPYzDM-65">
          <mxGeometry relative="1" as="geometry" />
        </mxCell>
        <mxCell id="heyaywztZK_FHNSPYzDM-78" value="Nutrition Level" style="edgeLabel;html=1;align=center;verticalAlign=middle;resizable=0;points=[];" vertex="1" connectable="0" parent="heyaywztZK_FHNSPYzDM-77">
          <mxGeometry x="0.6327" relative="1" as="geometry">
            <mxPoint as="offset" />
          </mxGeometry>
        </mxCell>
        <mxCell id="heyaywztZK_FHNSPYzDM-30" value="Type of Filter" style="rhombus;whiteSpace=wrap;html=1;" vertex="1" parent="WIyWlLk6GJQsqaUBKTNV-1">
          <mxGeometry x="-80" y="610" width="80" height="80" as="geometry" />
        </mxCell>
        <mxCell id="heyaywztZK_FHNSPYzDM-57" style="edgeStyle=orthogonalEdgeStyle;rounded=0;orthogonalLoop=1;jettySize=auto;html=1;exitX=0.5;exitY=1;exitDx=0;exitDy=0;entryX=0.5;entryY=0;entryDx=0;entryDy=0;" edge="1" parent="WIyWlLk6GJQsqaUBKTNV-1" source="heyaywztZK_FHNSPYzDM-34" target="heyaywztZK_FHNSPYzDM-56">
          <mxGeometry relative="1" as="geometry" />
        </mxCell>
        <mxCell id="heyaywztZK_FHNSPYzDM-34" value="Input Nutrient&lt;div&gt;and Range&lt;/div&gt;" style="shape=parallelogram;perimeter=parallelogramPerimeter;whiteSpace=wrap;html=1;fixedSize=1;" vertex="1" parent="WIyWlLk6GJQsqaUBKTNV-1">
          <mxGeometry x="-230" y="700" width="110" height="40" as="geometry" />
        </mxCell>
        <mxCell id="heyaywztZK_FHNSPYzDM-110" style="edgeStyle=orthogonalEdgeStyle;rounded=0;orthogonalLoop=1;jettySize=auto;html=1;exitX=0.5;exitY=1;exitDx=0;exitDy=0;" edge="1" parent="WIyWlLk6GJQsqaUBKTNV-1" source="heyaywztZK_FHNSPYzDM-39">
          <mxGeometry relative="1" as="geometry">
            <mxPoint x="364" y="700" as="targetPoint" />
          </mxGeometry>
        </mxCell>
        <mxCell id="heyaywztZK_FHNSPYzDM-39" value="Input Food Name" style="shape=parallelogram;perimeter=parallelogramPerimeter;whiteSpace=wrap;html=1;fixedSize=1;" vertex="1" parent="WIyWlLk6GJQsqaUBKTNV-1">
          <mxGeometry x="299" y="610" width="130" height="40" as="geometry" />
        </mxCell>
        <mxCell id="heyaywztZK_FHNSPYzDM-133" style="edgeStyle=orthogonalEdgeStyle;rounded=0;orthogonalLoop=1;jettySize=auto;html=1;exitX=0.5;exitY=1;exitDx=0;exitDy=0;entryX=0.5;entryY=0;entryDx=0;entryDy=0;" edge="1" parent="WIyWlLk6GJQsqaUBKTNV-1" source="heyaywztZK_FHNSPYzDM-40" target="heyaywztZK_FHNSPYzDM-132">
          <mxGeometry relative="1" as="geometry" />
        </mxCell>
        <mxCell id="heyaywztZK_FHNSPYzDM-40" value="Select One Food" style="shape=parallelogram;perimeter=parallelogramPerimeter;whiteSpace=wrap;html=1;fixedSize=1;" vertex="1" parent="WIyWlLk6GJQsqaUBKTNV-1">
          <mxGeometry x="575" y="610" width="115" height="40" as="geometry" />
        </mxCell>
        <mxCell id="heyaywztZK_FHNSPYzDM-41" value="Input Food Name&lt;div&gt;and Weight&lt;/div&gt;" style="shape=parallelogram;perimeter=parallelogramPerimeter;whiteSpace=wrap;html=1;fixedSize=1;" vertex="1" parent="WIyWlLk6GJQsqaUBKTNV-1">
          <mxGeometry x="810" y="610" width="119" height="40" as="geometry" />
        </mxCell>
        <mxCell id="heyaywztZK_FHNSPYzDM-47" style="edgeStyle=orthogonalEdgeStyle;rounded=0;orthogonalLoop=1;jettySize=auto;html=1;exitX=0;exitY=0.5;exitDx=0;exitDy=0;entryX=0.5;entryY=0;entryDx=0;entryDy=0;" edge="1" parent="WIyWlLk6GJQsqaUBKTNV-1" source="heyaywztZK_FHNSPYzDM-42" target="heyaywztZK_FHNSPYzDM-45">
          <mxGeometry relative="1" as="geometry" />
        </mxCell>
        <mxCell id="heyaywztZK_FHNSPYzDM-52" value="Low" style="edgeLabel;html=1;align=center;verticalAlign=middle;resizable=0;points=[];" vertex="1" connectable="0" parent="heyaywztZK_FHNSPYzDM-47">
          <mxGeometry x="0.4861" relative="1" as="geometry">
            <mxPoint as="offset" />
          </mxGeometry>
        </mxCell>
        <mxCell id="heyaywztZK_FHNSPYzDM-51" style="edgeStyle=orthogonalEdgeStyle;rounded=0;orthogonalLoop=1;jettySize=auto;html=1;exitX=0.5;exitY=1;exitDx=0;exitDy=0;entryX=0.5;entryY=0;entryDx=0;entryDy=0;" edge="1" parent="WIyWlLk6GJQsqaUBKTNV-1" source="heyaywztZK_FHNSPYzDM-42" target="heyaywztZK_FHNSPYzDM-48">
          <mxGeometry relative="1" as="geometry" />
        </mxCell>
        <mxCell id="heyaywztZK_FHNSPYzDM-53" value="Mid" style="edgeLabel;html=1;align=center;verticalAlign=middle;resizable=0;points=[];" vertex="1" connectable="0" parent="heyaywztZK_FHNSPYzDM-51">
          <mxGeometry x="-0.2083" y="2" relative="1" as="geometry">
            <mxPoint as="offset" />
          </mxGeometry>
        </mxCell>
        <mxCell id="heyaywztZK_FHNSPYzDM-54" style="edgeStyle=orthogonalEdgeStyle;rounded=0;orthogonalLoop=1;jettySize=auto;html=1;exitX=1;exitY=0.5;exitDx=0;exitDy=0;entryX=0.5;entryY=0;entryDx=0;entryDy=0;" edge="1" parent="WIyWlLk6GJQsqaUBKTNV-1" source="heyaywztZK_FHNSPYzDM-42" target="heyaywztZK_FHNSPYzDM-50">
          <mxGeometry relative="1" as="geometry">
            <Array as="points">
              <mxPoint x="225" y="800" />
            </Array>
          </mxGeometry>
        </mxCell>
        <mxCell id="heyaywztZK_FHNSPYzDM-55" value="High" style="edgeLabel;html=1;align=center;verticalAlign=middle;resizable=0;points=[];" vertex="1" connectable="0" parent="heyaywztZK_FHNSPYzDM-54">
          <mxGeometry x="0.5887" relative="1" as="geometry">
            <mxPoint as="offset" />
          </mxGeometry>
        </mxCell>
        <mxCell id="heyaywztZK_FHNSPYzDM-42" value="Which Level?" style="rhombus;whiteSpace=wrap;html=1;" vertex="1" parent="WIyWlLk6GJQsqaUBKTNV-1">
          <mxGeometry x="81.25" y="770" width="60" height="60" as="geometry" />
        </mxCell>
        <mxCell id="heyaywztZK_FHNSPYzDM-96" style="edgeStyle=orthogonalEdgeStyle;rounded=0;orthogonalLoop=1;jettySize=auto;html=1;exitX=0.5;exitY=1;exitDx=0;exitDy=0;entryX=0;entryY=0.5;entryDx=0;entryDy=0;" edge="1" parent="WIyWlLk6GJQsqaUBKTNV-1" source="heyaywztZK_FHNSPYzDM-45" target="heyaywztZK_FHNSPYzDM-85">
          <mxGeometry relative="1" as="geometry" />
        </mxCell>
        <mxCell id="heyaywztZK_FHNSPYzDM-45" value="Filter foods under 33% of max value." style="rounded=1;whiteSpace=wrap;html=1;" vertex="1" parent="WIyWlLk6GJQsqaUBKTNV-1">
          <mxGeometry x="-46" y="860" width="90" height="60" as="geometry" />
        </mxCell>
        <mxCell id="heyaywztZK_FHNSPYzDM-90" style="edgeStyle=orthogonalEdgeStyle;rounded=0;orthogonalLoop=1;jettySize=auto;html=1;exitX=0.5;exitY=1;exitDx=0;exitDy=0;entryX=0.5;entryY=0;entryDx=0;entryDy=0;" edge="1" parent="WIyWlLk6GJQsqaUBKTNV-1" source="heyaywztZK_FHNSPYzDM-48" target="heyaywztZK_FHNSPYzDM-85">
          <mxGeometry relative="1" as="geometry">
            <mxPoint x="111.33333333333303" y="940.083333333333" as="targetPoint" />
          </mxGeometry>
        </mxCell>
        <mxCell id="heyaywztZK_FHNSPYzDM-48" value="Filter foods between 33% and 66% of max value" style="rounded=1;whiteSpace=wrap;html=1;" vertex="1" parent="WIyWlLk6GJQsqaUBKTNV-1">
          <mxGeometry x="62.5" y="860" width="97.5" height="60" as="geometry" />
        </mxCell>
        <mxCell id="heyaywztZK_FHNSPYzDM-97" style="edgeStyle=orthogonalEdgeStyle;rounded=0;orthogonalLoop=1;jettySize=auto;html=1;exitX=0.5;exitY=1;exitDx=0;exitDy=0;entryX=1;entryY=0.5;entryDx=0;entryDy=0;" edge="1" parent="WIyWlLk6GJQsqaUBKTNV-1" source="heyaywztZK_FHNSPYzDM-50" target="heyaywztZK_FHNSPYzDM-85">
          <mxGeometry relative="1" as="geometry" />
        </mxCell>
        <mxCell id="heyaywztZK_FHNSPYzDM-50" value="Filter foods above 66% of max value." style="rounded=1;whiteSpace=wrap;html=1;" vertex="1" parent="WIyWlLk6GJQsqaUBKTNV-1">
          <mxGeometry x="180" y="860" width="90" height="60" as="geometry" />
        </mxCell>
        <mxCell id="heyaywztZK_FHNSPYzDM-59" value="" style="edgeStyle=orthogonalEdgeStyle;rounded=0;orthogonalLoop=1;jettySize=auto;html=1;" edge="1" parent="WIyWlLk6GJQsqaUBKTNV-1" source="heyaywztZK_FHNSPYzDM-56" target="heyaywztZK_FHNSPYzDM-58">
          <mxGeometry relative="1" as="geometry" />
        </mxCell>
        <mxCell id="heyaywztZK_FHNSPYzDM-60" value="Yes" style="edgeLabel;html=1;align=center;verticalAlign=middle;resizable=0;points=[];" vertex="1" connectable="0" parent="heyaywztZK_FHNSPYzDM-59">
          <mxGeometry x="-0.3016" y="-3" relative="1" as="geometry">
            <mxPoint as="offset" />
          </mxGeometry>
        </mxCell>
        <mxCell id="heyaywztZK_FHNSPYzDM-73" style="edgeStyle=orthogonalEdgeStyle;rounded=0;orthogonalLoop=1;jettySize=auto;html=1;exitX=1;exitY=0.5;exitDx=0;exitDy=0;entryX=1;entryY=0.5;entryDx=0;entryDy=0;dashed=1;" edge="1" parent="WIyWlLk6GJQsqaUBKTNV-1" source="heyaywztZK_FHNSPYzDM-56" target="heyaywztZK_FHNSPYzDM-34">
          <mxGeometry relative="1" as="geometry">
            <Array as="points">
              <mxPoint x="-100" y="875" />
              <mxPoint x="-100" y="720" />
            </Array>
          </mxGeometry>
        </mxCell>
        <mxCell id="heyaywztZK_FHNSPYzDM-74" value="No" style="edgeLabel;html=1;align=center;verticalAlign=middle;resizable=0;points=[];" vertex="1" connectable="0" parent="heyaywztZK_FHNSPYzDM-73">
          <mxGeometry x="0.065" y="-1" relative="1" as="geometry">
            <mxPoint as="offset" />
          </mxGeometry>
        </mxCell>
        <mxCell id="heyaywztZK_FHNSPYzDM-56" value="&lt;font style=&quot;font-size: 11px;&quot;&gt;Do any foods&amp;nbsp;&lt;/font&gt;&lt;div&gt;&lt;font style=&quot;font-size: 11px;&quot;&gt;fall within that&amp;nbsp;&lt;/font&gt;&lt;div&gt;&lt;font style=&quot;font-size: 11px;&quot;&gt;nutritional&amp;nbsp;&lt;/font&gt;&lt;/div&gt;&lt;div&gt;&lt;font style=&quot;font-size: 11px;&quot;&gt;range?&lt;/font&gt;&lt;/div&gt;&lt;/div&gt;" style="rhombus;whiteSpace=wrap;html=1;" vertex="1" parent="WIyWlLk6GJQsqaUBKTNV-1">
          <mxGeometry x="-230" y="820" width="110" height="110" as="geometry" />
        </mxCell>
        <mxCell id="heyaywztZK_FHNSPYzDM-68" style="edgeStyle=orthogonalEdgeStyle;rounded=0;orthogonalLoop=1;jettySize=auto;html=1;exitX=0.5;exitY=1;exitDx=0;exitDy=0;" edge="1" parent="WIyWlLk6GJQsqaUBKTNV-1" source="heyaywztZK_FHNSPYzDM-58" target="heyaywztZK_FHNSPYzDM-67">
          <mxGeometry relative="1" as="geometry" />
        </mxCell>
        <mxCell id="heyaywztZK_FHNSPYzDM-58" value="Display List of Foods" style="whiteSpace=wrap;html=1;rounded=1;" vertex="1" parent="WIyWlLk6GJQsqaUBKTNV-1">
          <mxGeometry x="-232.5" y="990" width="115" height="35" as="geometry" />
        </mxCell>
        <mxCell id="heyaywztZK_FHNSPYzDM-66" style="edgeStyle=orthogonalEdgeStyle;rounded=0;orthogonalLoop=1;jettySize=auto;html=1;exitX=0.5;exitY=1;exitDx=0;exitDy=0;entryX=0.5;entryY=0;entryDx=0;entryDy=0;" edge="1" parent="WIyWlLk6GJQsqaUBKTNV-1" source="heyaywztZK_FHNSPYzDM-65" target="heyaywztZK_FHNSPYzDM-42">
          <mxGeometry relative="1" as="geometry" />
        </mxCell>
        <mxCell id="heyaywztZK_FHNSPYzDM-65" value="Input Nutrient" style="shape=parallelogram;perimeter=parallelogramPerimeter;whiteSpace=wrap;html=1;fixedSize=1;" vertex="1" parent="WIyWlLk6GJQsqaUBKTNV-1">
          <mxGeometry x="56.25" y="690" width="110" height="40" as="geometry" />
        </mxCell>
        <mxCell id="heyaywztZK_FHNSPYzDM-70" style="edgeStyle=orthogonalEdgeStyle;rounded=0;orthogonalLoop=1;jettySize=auto;html=1;exitX=0.5;exitY=1;exitDx=0;exitDy=0;entryX=0.5;entryY=0;entryDx=0;entryDy=0;" edge="1" parent="WIyWlLk6GJQsqaUBKTNV-1" source="heyaywztZK_FHNSPYzDM-67" target="heyaywztZK_FHNSPYzDM-69">
          <mxGeometry relative="1" as="geometry" />
        </mxCell>
        <mxCell id="heyaywztZK_FHNSPYzDM-67" value="Press Button" style="whiteSpace=wrap;html=1;rounded=1;" vertex="1" parent="WIyWlLk6GJQsqaUBKTNV-1">
          <mxGeometry x="-232.5" y="1070" width="115" height="35" as="geometry" />
        </mxCell>
        <mxCell id="heyaywztZK_FHNSPYzDM-72" style="edgeStyle=orthogonalEdgeStyle;rounded=0;orthogonalLoop=1;jettySize=auto;html=1;exitX=0;exitY=0.5;exitDx=0;exitDy=0;entryX=0;entryY=0.25;entryDx=0;entryDy=0;" edge="1" parent="WIyWlLk6GJQsqaUBKTNV-1" source="heyaywztZK_FHNSPYzDM-69" target="heyaywztZK_FHNSPYzDM-34">
          <mxGeometry relative="1" as="geometry">
            <mxPoint x="-221.66666666666666" y="720" as="targetPoint" />
            <Array as="points">
              <mxPoint x="-280" y="1190" />
              <mxPoint x="-280" y="713" />
            </Array>
          </mxGeometry>
        </mxCell>
        <mxCell id="heyaywztZK_FHNSPYzDM-100" value="Filter again" style="edgeLabel;html=1;align=center;verticalAlign=middle;resizable=0;points=[];" vertex="1" connectable="0" parent="heyaywztZK_FHNSPYzDM-72">
          <mxGeometry x="-0.8415" y="2" relative="1" as="geometry">
            <mxPoint x="23" y="-12" as="offset" />
          </mxGeometry>
        </mxCell>
        <mxCell id="heyaywztZK_FHNSPYzDM-75" style="edgeStyle=orthogonalEdgeStyle;rounded=0;orthogonalLoop=1;jettySize=auto;html=1;exitX=1;exitY=0.5;exitDx=0;exitDy=0;entryX=0.5;entryY=1;entryDx=0;entryDy=0;" edge="1" parent="WIyWlLk6GJQsqaUBKTNV-1" source="heyaywztZK_FHNSPYzDM-69" target="heyaywztZK_FHNSPYzDM-7">
          <mxGeometry relative="1" as="geometry">
            <Array as="points">
              <mxPoint x="1000" y="1190" />
            </Array>
          </mxGeometry>
        </mxCell>
        <mxCell id="heyaywztZK_FHNSPYzDM-98" value="Quit Button" style="edgeLabel;html=1;align=center;verticalAlign=middle;resizable=0;points=[];" vertex="1" connectable="0" parent="heyaywztZK_FHNSPYzDM-75">
          <mxGeometry x="-0.9491" y="1" relative="1" as="geometry">
            <mxPoint as="offset" />
          </mxGeometry>
        </mxCell>
        <mxCell id="heyaywztZK_FHNSPYzDM-105" style="edgeStyle=orthogonalEdgeStyle;rounded=0;orthogonalLoop=1;jettySize=auto;html=1;exitX=0.5;exitY=1;exitDx=0;exitDy=0;endArrow=none;endFill=0;" edge="1" parent="WIyWlLk6GJQsqaUBKTNV-1" source="heyaywztZK_FHNSPYzDM-69">
          <mxGeometry relative="1" as="geometry">
            <mxPoint x="-175" y="1260" as="targetPoint" />
          </mxGeometry>
        </mxCell>
        <mxCell id="heyaywztZK_FHNSPYzDM-108" value="Return to main interface" style="edgeLabel;html=1;align=center;verticalAlign=middle;resizable=0;points=[];" vertex="1" connectable="0" parent="heyaywztZK_FHNSPYzDM-105">
          <mxGeometry x="0.0275" relative="1" as="geometry">
            <mxPoint y="-2" as="offset" />
          </mxGeometry>
        </mxCell>
        <mxCell id="heyaywztZK_FHNSPYzDM-69" value="Which Button?" style="rhombus;whiteSpace=wrap;html=1;" vertex="1" parent="WIyWlLk6GJQsqaUBKTNV-1">
          <mxGeometry x="-215" y="1150" width="80" height="80" as="geometry" />
        </mxCell>
        <mxCell id="heyaywztZK_FHNSPYzDM-84" style="edgeStyle=orthogonalEdgeStyle;rounded=0;orthogonalLoop=1;jettySize=auto;html=1;exitX=0.5;exitY=1;exitDx=0;exitDy=0;" edge="1" parent="WIyWlLk6GJQsqaUBKTNV-1" source="heyaywztZK_FHNSPYzDM-85" target="heyaywztZK_FHNSPYzDM-87">
          <mxGeometry relative="1" as="geometry" />
        </mxCell>
        <mxCell id="heyaywztZK_FHNSPYzDM-85" value="Display List of Foods" style="whiteSpace=wrap;html=1;shadow=0;rounded=1;" vertex="1" parent="WIyWlLk6GJQsqaUBKTNV-1">
          <mxGeometry x="53.75" y="955" width="115" height="35" as="geometry" />
        </mxCell>
        <mxCell id="heyaywztZK_FHNSPYzDM-86" style="edgeStyle=orthogonalEdgeStyle;rounded=0;orthogonalLoop=1;jettySize=auto;html=1;exitX=0.5;exitY=1;exitDx=0;exitDy=0;entryX=0.5;entryY=0;entryDx=0;entryDy=0;" edge="1" parent="WIyWlLk6GJQsqaUBKTNV-1" source="heyaywztZK_FHNSPYzDM-87" target="heyaywztZK_FHNSPYzDM-88">
          <mxGeometry relative="1" as="geometry">
            <mxPoint x="111.25" y="1090" as="targetPoint" />
          </mxGeometry>
        </mxCell>
        <mxCell id="heyaywztZK_FHNSPYzDM-87" value="Press Button" style="whiteSpace=wrap;html=1;rounded=1;" vertex="1" parent="WIyWlLk6GJQsqaUBKTNV-1">
          <mxGeometry x="53.75" y="1020" width="115" height="35" as="geometry" />
        </mxCell>
        <mxCell id="heyaywztZK_FHNSPYzDM-95" style="edgeStyle=orthogonalEdgeStyle;rounded=0;orthogonalLoop=1;jettySize=auto;html=1;exitX=0;exitY=0.5;exitDx=0;exitDy=0;entryX=0;entryY=0.5;entryDx=0;entryDy=0;" edge="1" parent="WIyWlLk6GJQsqaUBKTNV-1" source="heyaywztZK_FHNSPYzDM-88" target="heyaywztZK_FHNSPYzDM-65">
          <mxGeometry relative="1" as="geometry">
            <Array as="points">
              <mxPoint x="-60" y="1120" />
              <mxPoint x="-60" y="710" />
            </Array>
          </mxGeometry>
        </mxCell>
        <mxCell id="heyaywztZK_FHNSPYzDM-102" value="Filter Again" style="edgeLabel;html=1;align=center;verticalAlign=middle;resizable=0;points=[];" vertex="1" connectable="0" parent="heyaywztZK_FHNSPYzDM-95">
          <mxGeometry x="-0.7317" y="-3" relative="1" as="geometry">
            <mxPoint as="offset" />
          </mxGeometry>
        </mxCell>
        <mxCell id="heyaywztZK_FHNSPYzDM-103" style="edgeStyle=orthogonalEdgeStyle;rounded=0;orthogonalLoop=1;jettySize=auto;html=1;exitX=1;exitY=0.5;exitDx=0;exitDy=0;endArrow=none;endFill=0;" edge="1" parent="WIyWlLk6GJQsqaUBKTNV-1" source="heyaywztZK_FHNSPYzDM-88">
          <mxGeometry relative="1" as="geometry">
            <mxPoint x="210" y="1190" as="targetPoint" />
          </mxGeometry>
        </mxCell>
        <mxCell id="heyaywztZK_FHNSPYzDM-107" value="Quit Button" style="edgeLabel;html=1;align=center;verticalAlign=middle;resizable=0;points=[];" vertex="1" connectable="0" parent="heyaywztZK_FHNSPYzDM-103">
          <mxGeometry x="-0.6003" y="-3" relative="1" as="geometry">
            <mxPoint x="32" y="7" as="offset" />
          </mxGeometry>
        </mxCell>
        <mxCell id="heyaywztZK_FHNSPYzDM-88" value="Which Button?" style="rhombus;whiteSpace=wrap;html=1;" vertex="1" parent="WIyWlLk6GJQsqaUBKTNV-1">
          <mxGeometry x="71.25" y="1080" width="80" height="80" as="geometry" />
        </mxCell>
        <mxCell id="heyaywztZK_FHNSPYzDM-115" style="edgeStyle=orthogonalEdgeStyle;rounded=0;orthogonalLoop=1;jettySize=auto;html=1;exitX=0.5;exitY=1;exitDx=0;exitDy=0;entryX=0.5;entryY=0;entryDx=0;entryDy=0;" edge="1" parent="WIyWlLk6GJQsqaUBKTNV-1" source="heyaywztZK_FHNSPYzDM-113" target="heyaywztZK_FHNSPYzDM-114">
          <mxGeometry relative="1" as="geometry" />
        </mxCell>
        <mxCell id="heyaywztZK_FHNSPYzDM-113" value="Search Data" style="whiteSpace=wrap;html=1;shadow=0;rounded=1;" vertex="1" parent="WIyWlLk6GJQsqaUBKTNV-1">
          <mxGeometry x="313" y="702.5" width="110" height="35" as="geometry" />
        </mxCell>
        <mxCell id="heyaywztZK_FHNSPYzDM-117" style="edgeStyle=orthogonalEdgeStyle;rounded=0;orthogonalLoop=1;jettySize=auto;html=1;exitX=1;exitY=0.5;exitDx=0;exitDy=0;entryX=1;entryY=0.5;entryDx=0;entryDy=0;dashed=1;" edge="1" parent="WIyWlLk6GJQsqaUBKTNV-1" source="heyaywztZK_FHNSPYzDM-114" target="heyaywztZK_FHNSPYzDM-39">
          <mxGeometry relative="1" as="geometry">
            <Array as="points">
              <mxPoint x="459" y="825" />
              <mxPoint x="459" y="630" />
            </Array>
          </mxGeometry>
        </mxCell>
        <mxCell id="heyaywztZK_FHNSPYzDM-118" value="No" style="edgeLabel;html=1;align=center;verticalAlign=middle;resizable=0;points=[];" vertex="1" connectable="0" parent="heyaywztZK_FHNSPYzDM-117">
          <mxGeometry x="-0.1171" relative="1" as="geometry">
            <mxPoint y="1" as="offset" />
          </mxGeometry>
        </mxCell>
        <mxCell id="heyaywztZK_FHNSPYzDM-120" style="edgeStyle=orthogonalEdgeStyle;rounded=0;orthogonalLoop=1;jettySize=auto;html=1;exitX=0.5;exitY=1;exitDx=0;exitDy=0;entryX=0.5;entryY=0;entryDx=0;entryDy=0;" edge="1" parent="WIyWlLk6GJQsqaUBKTNV-1" source="heyaywztZK_FHNSPYzDM-114" target="heyaywztZK_FHNSPYzDM-119">
          <mxGeometry relative="1" as="geometry" />
        </mxCell>
        <mxCell id="heyaywztZK_FHNSPYzDM-121" value="Yes" style="edgeLabel;html=1;align=center;verticalAlign=middle;resizable=0;points=[];" vertex="1" connectable="0" parent="heyaywztZK_FHNSPYzDM-120">
          <mxGeometry x="-0.32" y="3" relative="1" as="geometry">
            <mxPoint as="offset" />
          </mxGeometry>
        </mxCell>
        <mxCell id="heyaywztZK_FHNSPYzDM-114" value="Do any foods with this name exist ?" style="rhombus;whiteSpace=wrap;html=1;" vertex="1" parent="WIyWlLk6GJQsqaUBKTNV-1">
          <mxGeometry x="311.5" y="770" width="105" height="110" as="geometry" />
        </mxCell>
        <mxCell id="heyaywztZK_FHNSPYzDM-123" style="edgeStyle=orthogonalEdgeStyle;rounded=0;orthogonalLoop=1;jettySize=auto;html=1;exitX=0.5;exitY=1;exitDx=0;exitDy=0;entryX=0.5;entryY=0;entryDx=0;entryDy=0;" edge="1" parent="WIyWlLk6GJQsqaUBKTNV-1" source="heyaywztZK_FHNSPYzDM-119" target="heyaywztZK_FHNSPYzDM-122">
          <mxGeometry relative="1" as="geometry" />
        </mxCell>
        <mxCell id="heyaywztZK_FHNSPYzDM-119" value="Display food&#39;s nutrional information&amp;nbsp;" style="whiteSpace=wrap;html=1;shadow=0;rounded=1;" vertex="1" parent="WIyWlLk6GJQsqaUBKTNV-1">
          <mxGeometry x="306.5" y="930" width="115" height="35" as="geometry" />
        </mxCell>
        <mxCell id="heyaywztZK_FHNSPYzDM-125" style="edgeStyle=orthogonalEdgeStyle;rounded=0;orthogonalLoop=1;jettySize=auto;html=1;exitX=0.5;exitY=1;exitDx=0;exitDy=0;entryX=0.5;entryY=0;entryDx=0;entryDy=0;" edge="1" parent="WIyWlLk6GJQsqaUBKTNV-1" source="heyaywztZK_FHNSPYzDM-122" target="heyaywztZK_FHNSPYzDM-124">
          <mxGeometry relative="1" as="geometry" />
        </mxCell>
        <mxCell id="heyaywztZK_FHNSPYzDM-122" value="Press Button" style="whiteSpace=wrap;html=1;rounded=1;" vertex="1" parent="WIyWlLk6GJQsqaUBKTNV-1">
          <mxGeometry x="306.5" y="1020" width="115" height="35" as="geometry" />
        </mxCell>
        <mxCell id="heyaywztZK_FHNSPYzDM-126" style="edgeStyle=orthogonalEdgeStyle;rounded=0;orthogonalLoop=1;jettySize=auto;html=1;exitX=0.5;exitY=1;exitDx=0;exitDy=0;endArrow=none;endFill=0;jumpStyle=arc;" edge="1" parent="WIyWlLk6GJQsqaUBKTNV-1" source="heyaywztZK_FHNSPYzDM-124">
          <mxGeometry relative="1" as="geometry">
            <mxPoint x="364" y="1260" as="targetPoint" />
            <Array as="points">
              <mxPoint x="364" y="1250" />
            </Array>
          </mxGeometry>
        </mxCell>
        <mxCell id="heyaywztZK_FHNSPYzDM-131" value="Return to main interface" style="edgeLabel;html=1;align=center;verticalAlign=middle;resizable=0;points=[];" vertex="1" connectable="0" parent="heyaywztZK_FHNSPYzDM-126">
          <mxGeometry x="-0.7313" y="3" relative="1" as="geometry">
            <mxPoint x="-3" y="56" as="offset" />
          </mxGeometry>
        </mxCell>
        <mxCell id="heyaywztZK_FHNSPYzDM-127" style="edgeStyle=orthogonalEdgeStyle;rounded=0;orthogonalLoop=1;jettySize=auto;html=1;exitX=1;exitY=0.5;exitDx=0;exitDy=0;endArrow=none;endFill=0;" edge="1" parent="WIyWlLk6GJQsqaUBKTNV-1" source="heyaywztZK_FHNSPYzDM-124">
          <mxGeometry relative="1" as="geometry">
            <mxPoint x="480" y="1190" as="targetPoint" />
          </mxGeometry>
        </mxCell>
        <mxCell id="heyaywztZK_FHNSPYzDM-130" value="Quit Button" style="edgeLabel;html=1;align=center;verticalAlign=middle;resizable=0;points=[];" vertex="1" connectable="0" parent="heyaywztZK_FHNSPYzDM-127">
          <mxGeometry x="-0.5113" y="2" relative="1" as="geometry">
            <mxPoint as="offset" />
          </mxGeometry>
        </mxCell>
        <mxCell id="heyaywztZK_FHNSPYzDM-128" style="edgeStyle=orthogonalEdgeStyle;rounded=0;orthogonalLoop=1;jettySize=auto;html=1;exitX=0;exitY=0.5;exitDx=0;exitDy=0;entryX=0;entryY=0.5;entryDx=0;entryDy=0;" edge="1" parent="WIyWlLk6GJQsqaUBKTNV-1" source="heyaywztZK_FHNSPYzDM-124" target="heyaywztZK_FHNSPYzDM-39">
          <mxGeometry relative="1" as="geometry">
            <Array as="points">
              <mxPoint x="280" y="1120" />
              <mxPoint x="280" y="630" />
            </Array>
          </mxGeometry>
        </mxCell>
        <mxCell id="heyaywztZK_FHNSPYzDM-129" value="Search Again" style="edgeLabel;html=1;align=center;verticalAlign=middle;resizable=0;points=[];" vertex="1" connectable="0" parent="heyaywztZK_FHNSPYzDM-128">
          <mxGeometry x="-0.7574" y="1" relative="1" as="geometry">
            <mxPoint x="1" y="-8" as="offset" />
          </mxGeometry>
        </mxCell>
        <mxCell id="heyaywztZK_FHNSPYzDM-124" value="Which Button?" style="rhombus;whiteSpace=wrap;html=1;" vertex="1" parent="WIyWlLk6GJQsqaUBKTNV-1">
          <mxGeometry x="324" y="1080" width="80" height="80" as="geometry" />
        </mxCell>
        <mxCell id="heyaywztZK_FHNSPYzDM-135" style="edgeStyle=orthogonalEdgeStyle;rounded=0;orthogonalLoop=1;jettySize=auto;html=1;exitX=0.5;exitY=1;exitDx=0;exitDy=0;" edge="1" parent="WIyWlLk6GJQsqaUBKTNV-1" source="heyaywztZK_FHNSPYzDM-132" target="heyaywztZK_FHNSPYzDM-134">
          <mxGeometry relative="1" as="geometry" />
        </mxCell>
        <mxCell id="heyaywztZK_FHNSPYzDM-132" value="Search Data" style="whiteSpace=wrap;html=1;shadow=0;rounded=1;" vertex="1" parent="WIyWlLk6GJQsqaUBKTNV-1">
          <mxGeometry x="577.5" y="705" width="110" height="35" as="geometry" />
        </mxCell>
        <mxCell id="heyaywztZK_FHNSPYzDM-143" style="edgeStyle=orthogonalEdgeStyle;rounded=0;orthogonalLoop=1;jettySize=auto;html=1;exitX=0.5;exitY=1;exitDx=0;exitDy=0;entryX=0.5;entryY=0;entryDx=0;entryDy=0;" edge="1" parent="WIyWlLk6GJQsqaUBKTNV-1" source="heyaywztZK_FHNSPYzDM-134" target="heyaywztZK_FHNSPYzDM-137">
          <mxGeometry relative="1" as="geometry" />
        </mxCell>
        <mxCell id="heyaywztZK_FHNSPYzDM-134" value="Display graphs showing food&#39;s nutrition breakdown" style="whiteSpace=wrap;html=1;shadow=0;rounded=1;" vertex="1" parent="WIyWlLk6GJQsqaUBKTNV-1">
          <mxGeometry x="574.5" y="795" width="115" height="55" as="geometry" />
        </mxCell>
        <mxCell id="heyaywztZK_FHNSPYzDM-136" style="edgeStyle=orthogonalEdgeStyle;rounded=0;orthogonalLoop=1;jettySize=auto;html=1;exitX=0.5;exitY=1;exitDx=0;exitDy=0;entryX=0.5;entryY=0;entryDx=0;entryDy=0;" edge="1" parent="WIyWlLk6GJQsqaUBKTNV-1" source="heyaywztZK_FHNSPYzDM-137" target="heyaywztZK_FHNSPYzDM-142">
          <mxGeometry relative="1" as="geometry" />
        </mxCell>
        <mxCell id="heyaywztZK_FHNSPYzDM-137" value="Press Button" style="whiteSpace=wrap;html=1;rounded=1;" vertex="1" parent="WIyWlLk6GJQsqaUBKTNV-1">
          <mxGeometry x="574.5" y="890" width="115" height="35" as="geometry" />
        </mxCell>
        <mxCell id="heyaywztZK_FHNSPYzDM-139" style="edgeStyle=orthogonalEdgeStyle;rounded=0;orthogonalLoop=1;jettySize=auto;html=1;exitX=1;exitY=0.5;exitDx=0;exitDy=0;endArrow=none;endFill=0;" edge="1" parent="WIyWlLk6GJQsqaUBKTNV-1" source="heyaywztZK_FHNSPYzDM-142">
          <mxGeometry relative="1" as="geometry">
            <mxPoint x="757" y="1190" as="targetPoint" />
          </mxGeometry>
        </mxCell>
        <mxCell id="heyaywztZK_FHNSPYzDM-140" value="Quit Button" style="edgeLabel;html=1;align=center;verticalAlign=middle;resizable=0;points=[];" vertex="1" connectable="0" parent="heyaywztZK_FHNSPYzDM-139">
          <mxGeometry x="-0.5113" y="2" relative="1" as="geometry">
            <mxPoint x="-23" y="2" as="offset" />
          </mxGeometry>
        </mxCell>
        <mxCell id="heyaywztZK_FHNSPYzDM-144" style="edgeStyle=orthogonalEdgeStyle;rounded=0;orthogonalLoop=1;jettySize=auto;html=1;exitX=0.5;exitY=1;exitDx=0;exitDy=0;endArrow=none;endFill=0;jumpStyle=arc;" edge="1" parent="WIyWlLk6GJQsqaUBKTNV-1" source="heyaywztZK_FHNSPYzDM-142">
          <mxGeometry relative="1" as="geometry">
            <mxPoint x="632" y="1260" as="targetPoint" />
            <Array as="points">
              <mxPoint x="632" y="1250" />
            </Array>
          </mxGeometry>
        </mxCell>
        <mxCell id="heyaywztZK_FHNSPYzDM-145" value="Return to main interface" style="edgeLabel;html=1;align=center;verticalAlign=middle;resizable=0;points=[];" vertex="1" connectable="0" parent="heyaywztZK_FHNSPYzDM-144">
          <mxGeometry x="-0.1153" y="3" relative="1" as="geometry">
            <mxPoint x="-3" y="-48" as="offset" />
          </mxGeometry>
        </mxCell>
        <mxCell id="heyaywztZK_FHNSPYzDM-146" style="edgeStyle=orthogonalEdgeStyle;rounded=0;orthogonalLoop=1;jettySize=auto;html=1;exitX=0;exitY=0.5;exitDx=0;exitDy=0;entryX=0;entryY=0.5;entryDx=0;entryDy=0;" edge="1" parent="WIyWlLk6GJQsqaUBKTNV-1" source="heyaywztZK_FHNSPYzDM-142" target="heyaywztZK_FHNSPYzDM-40">
          <mxGeometry relative="1" as="geometry">
            <Array as="points">
              <mxPoint x="510" y="1005" />
              <mxPoint x="510" y="630" />
            </Array>
          </mxGeometry>
        </mxCell>
        <mxCell id="heyaywztZK_FHNSPYzDM-148" value="Search Again" style="edgeLabel;html=1;align=center;verticalAlign=middle;resizable=0;points=[];" vertex="1" connectable="0" parent="heyaywztZK_FHNSPYzDM-146">
          <mxGeometry x="-0.8263" relative="1" as="geometry">
            <mxPoint x="-11" as="offset" />
          </mxGeometry>
        </mxCell>
        <mxCell id="heyaywztZK_FHNSPYzDM-142" value="Which Button?" style="rhombus;whiteSpace=wrap;html=1;" vertex="1" parent="WIyWlLk6GJQsqaUBKTNV-1">
          <mxGeometry x="592" y="965" width="80" height="80" as="geometry" />
        </mxCell>
        <mxCell id="heyaywztZK_FHNSPYzDM-153" style="edgeStyle=orthogonalEdgeStyle;rounded=0;orthogonalLoop=1;jettySize=auto;html=1;exitX=1;exitY=0.5;exitDx=0;exitDy=0;entryX=1;entryY=0.5;entryDx=0;entryDy=0;dashed=1;" edge="1" parent="WIyWlLk6GJQsqaUBKTNV-1" source="heyaywztZK_FHNSPYzDM-149" target="heyaywztZK_FHNSPYzDM-41">
          <mxGeometry relative="1" as="geometry">
            <Array as="points">
              <mxPoint x="941" y="805" />
              <mxPoint x="941" y="630" />
            </Array>
          </mxGeometry>
        </mxCell>
        <mxCell id="heyaywztZK_FHNSPYzDM-154" value="No" style="edgeLabel;html=1;align=center;verticalAlign=middle;resizable=0;points=[];" vertex="1" connectable="0" parent="heyaywztZK_FHNSPYzDM-153">
          <mxGeometry x="0.0729" relative="1" as="geometry">
            <mxPoint y="23" as="offset" />
          </mxGeometry>
        </mxCell>
        <mxCell id="heyaywztZK_FHNSPYzDM-149" value="Does the food exist in the database?" style="rhombus;whiteSpace=wrap;html=1;" vertex="1" parent="WIyWlLk6GJQsqaUBKTNV-1">
          <mxGeometry x="818" y="750" width="103" height="110" as="geometry" />
        </mxCell>
        <mxCell id="heyaywztZK_FHNSPYzDM-157" style="edgeStyle=orthogonalEdgeStyle;rounded=0;orthogonalLoop=1;jettySize=auto;html=1;exitX=0.5;exitY=1;exitDx=0;exitDy=0;entryX=0.5;entryY=0;entryDx=0;entryDy=0;" edge="1" parent="WIyWlLk6GJQsqaUBKTNV-1" source="heyaywztZK_FHNSPYzDM-155" target="heyaywztZK_FHNSPYzDM-149">
          <mxGeometry relative="1" as="geometry" />
        </mxCell>
        <mxCell id="heyaywztZK_FHNSPYzDM-155" value="Search Data" style="whiteSpace=wrap;html=1;shadow=0;rounded=1;" vertex="1" parent="WIyWlLk6GJQsqaUBKTNV-1">
          <mxGeometry x="814.5" y="690" width="110" height="35" as="geometry" />
        </mxCell>
        <mxCell id="heyaywztZK_FHNSPYzDM-156" style="edgeStyle=orthogonalEdgeStyle;rounded=0;orthogonalLoop=1;jettySize=auto;html=1;exitX=0.5;exitY=1;exitDx=0;exitDy=0;entryX=0.501;entryY=-0.049;entryDx=0;entryDy=0;entryPerimeter=0;" edge="1" parent="WIyWlLk6GJQsqaUBKTNV-1" source="heyaywztZK_FHNSPYzDM-41" target="heyaywztZK_FHNSPYzDM-155">
          <mxGeometry relative="1" as="geometry" />
        </mxCell>
        <mxCell id="heyaywztZK_FHNSPYzDM-161" style="edgeStyle=orthogonalEdgeStyle;rounded=0;orthogonalLoop=1;jettySize=auto;html=1;exitX=0.5;exitY=1;exitDx=0;exitDy=0;entryX=0.5;entryY=0;entryDx=0;entryDy=0;" edge="1" parent="WIyWlLk6GJQsqaUBKTNV-1" source="heyaywztZK_FHNSPYzDM-149" target="heyaywztZK_FHNSPYzDM-160">
          <mxGeometry relative="1" as="geometry">
            <mxPoint x="869.5" y="920" as="sourcePoint" />
          </mxGeometry>
        </mxCell>
        <mxCell id="heyaywztZK_FHNSPYzDM-174" style="edgeStyle=orthogonalEdgeStyle;rounded=0;orthogonalLoop=1;jettySize=auto;html=1;exitX=0.5;exitY=1;exitDx=0;exitDy=0;entryX=0.5;entryY=0;entryDx=0;entryDy=0;" edge="1" parent="WIyWlLk6GJQsqaUBKTNV-1" source="heyaywztZK_FHNSPYzDM-160" target="heyaywztZK_FHNSPYzDM-169">
          <mxGeometry relative="1" as="geometry" />
        </mxCell>
        <mxCell id="heyaywztZK_FHNSPYzDM-160" value="Display nutrient composition of that serving" style="whiteSpace=wrap;html=1;shadow=0;rounded=1;" vertex="1" parent="WIyWlLk6GJQsqaUBKTNV-1">
          <mxGeometry x="812" y="910" width="115" height="55" as="geometry" />
        </mxCell>
        <mxCell id="heyaywztZK_FHNSPYzDM-168" style="edgeStyle=orthogonalEdgeStyle;rounded=0;orthogonalLoop=1;jettySize=auto;html=1;exitX=0.5;exitY=1;exitDx=0;exitDy=0;entryX=0.5;entryY=0;entryDx=0;entryDy=0;" edge="1" parent="WIyWlLk6GJQsqaUBKTNV-1" source="heyaywztZK_FHNSPYzDM-169" target="heyaywztZK_FHNSPYzDM-173">
          <mxGeometry relative="1" as="geometry" />
        </mxCell>
        <mxCell id="heyaywztZK_FHNSPYzDM-169" value="Press Button" style="whiteSpace=wrap;html=1;rounded=1;" vertex="1" parent="WIyWlLk6GJQsqaUBKTNV-1">
          <mxGeometry x="812" y="1010" width="115" height="35" as="geometry" />
        </mxCell>
        <mxCell id="heyaywztZK_FHNSPYzDM-175" style="edgeStyle=orthogonalEdgeStyle;rounded=0;orthogonalLoop=1;jettySize=auto;html=1;exitX=1;exitY=0.5;exitDx=0;exitDy=0;endArrow=none;endFill=0;" edge="1" parent="WIyWlLk6GJQsqaUBKTNV-1" source="heyaywztZK_FHNSPYzDM-173">
          <mxGeometry relative="1" as="geometry">
            <mxPoint x="1000" y="1135" as="targetPoint" />
          </mxGeometry>
        </mxCell>
        <mxCell id="heyaywztZK_FHNSPYzDM-176" value="Quit Button" style="edgeLabel;html=1;align=center;verticalAlign=middle;resizable=0;points=[];" vertex="1" connectable="0" parent="heyaywztZK_FHNSPYzDM-175">
          <mxGeometry x="-0.044" relative="1" as="geometry">
            <mxPoint as="offset" />
          </mxGeometry>
        </mxCell>
        <mxCell id="heyaywztZK_FHNSPYzDM-177" style="edgeStyle=orthogonalEdgeStyle;rounded=0;orthogonalLoop=1;jettySize=auto;html=1;exitX=0.5;exitY=1;exitDx=0;exitDy=0;entryX=0;entryY=0.5;entryDx=0;entryDy=0;" edge="1" parent="WIyWlLk6GJQsqaUBKTNV-1" source="heyaywztZK_FHNSPYzDM-173" target="heyaywztZK_FHNSPYzDM-12">
          <mxGeometry relative="1" as="geometry">
            <Array as="points">
              <mxPoint x="870" y="1260" />
              <mxPoint x="-360" y="1260" />
              <mxPoint x="-360" y="440" />
            </Array>
          </mxGeometry>
        </mxCell>
        <mxCell id="heyaywztZK_FHNSPYzDM-178" value="Return to main interface" style="edgeLabel;html=1;align=center;verticalAlign=middle;resizable=0;points=[];" vertex="1" connectable="0" parent="heyaywztZK_FHNSPYzDM-177">
          <mxGeometry x="-0.9651" y="1" relative="1" as="geometry">
            <mxPoint as="offset" />
          </mxGeometry>
        </mxCell>
        <mxCell id="heyaywztZK_FHNSPYzDM-179" style="edgeStyle=orthogonalEdgeStyle;rounded=0;orthogonalLoop=1;jettySize=auto;html=1;exitX=0;exitY=0.5;exitDx=0;exitDy=0;entryX=0;entryY=0.5;entryDx=0;entryDy=0;" edge="1" parent="WIyWlLk6GJQsqaUBKTNV-1" source="heyaywztZK_FHNSPYzDM-173" target="heyaywztZK_FHNSPYzDM-41">
          <mxGeometry relative="1" as="geometry">
            <Array as="points">
              <mxPoint x="780" y="1135" />
              <mxPoint x="780" y="630" />
            </Array>
          </mxGeometry>
        </mxCell>
        <mxCell id="heyaywztZK_FHNSPYzDM-180" value="Calculate&lt;div&gt;Again&lt;/div&gt;" style="edgeLabel;html=1;align=center;verticalAlign=middle;resizable=0;points=[];" vertex="1" connectable="0" parent="heyaywztZK_FHNSPYzDM-179">
          <mxGeometry x="-0.9054" relative="1" as="geometry">
            <mxPoint as="offset" />
          </mxGeometry>
        </mxCell>
        <mxCell id="heyaywztZK_FHNSPYzDM-173" value="Which Button?" style="rhombus;whiteSpace=wrap;html=1;" vertex="1" parent="WIyWlLk6GJQsqaUBKTNV-1">
          <mxGeometry x="829.5" y="1095" width="80" height="80" as="geometry" />
        </mxCell>
      </root>
    </mxGraphModel>
  </diagram>
</mxfile>
